<svg width="262" height="240" viewBox="0 0 262 240" fill="none" xmlns="http://www.w3.org/2000/svg">
<path d="M136.737 91.88C136.737 95.08 135.681 97.544 133.569 99.272C131.457 101 128.321 101.864 124.161 101.864V96.2C125.121 95.176 125.921 94.088 126.561 92.936L125.889 92.552C121.857 98.76 116.417 101.864 109.569 101.864C106.369 101.864 103.457 101.128 100.833 99.656C98.2088 98.12 96.1288 96.008 94.5928 93.32C93.1208 90.568 92.3848 87.464 92.3848 84.008V59.816C92.3848 57.064 93.4408 55.112 95.5528 53.96C97.7288 52.744 101.057 52.136 105.537 52.136V83.048C105.537 85.352 106.241 87.176 107.649 88.52C109.057 89.864 111.105 90.536 113.793 90.536C116.865 90.536 119.265 89.576 120.993 87.656C122.721 85.672 123.585 83.144 123.585 80.072V59.816C123.585 57.064 124.641 55.112 126.753 53.96C128.929 52.744 132.257 52.136 136.737 52.136V91.88ZM169.001 101.864C163.561 101.864 159.561 100.296 157.001 97.16C154.441 94.024 153.161 89.992 153.161 85.064V62.696H142.985C142.985 59.432 143.593 57 144.809 55.4C146.025 53.8 147.625 53 149.609 53H153.353V45.416C153.353 42.664 154.409 40.712 156.521 39.56C158.633 38.344 161.833 37.736 166.121 37.736V53H178.889C178.889 56.456 178.249 58.952 176.969 60.488C175.689 61.96 173.577 62.696 170.633 62.696H166.313V84.584C166.313 86.696 166.729 88.232 167.561 89.192C168.393 90.088 169.833 90.536 171.881 90.536C174.121 90.536 176.425 89.896 178.793 88.616C179.497 89.256 180.041 90.056 180.425 91.016C180.873 91.976 181.097 92.936 181.097 93.896C181.097 95.176 180.649 96.424 179.753 97.64C178.857 98.856 177.481 99.88 175.625 100.712C173.833 101.48 171.625 101.864 169.001 101.864ZM215.734 63.464C211.894 63.464 208.79 64.456 206.422 66.44C204.054 68.424 202.87 70.92 202.87 73.928V94.184C202.87 96.936 201.782 98.92 199.606 100.136C197.494 101.288 194.198 101.864 189.718 101.864V62.12C189.718 58.92 190.774 56.456 192.886 54.728C194.998 53 198.134 52.136 202.294 52.136V57.8C201.334 58.824 200.534 59.912 199.894 61.064L200.566 61.448C204.598 55.24 209.622 52.136 215.638 52.136C218.518 52.136 220.694 52.904 222.166 54.44C223.638 55.976 224.374 57.928 224.374 60.296C224.374 62.088 223.894 63.656 222.934 65C221.142 63.976 218.742 63.464 215.734 63.464ZM238.199 48.488C235.767 48.488 233.719 47.784 232.055 46.376C230.455 44.904 229.655 43.016 229.655 40.712C229.655 38.408 230.455 36.552 232.055 35.144C233.719 33.672 235.767 32.936 238.199 32.936C240.631 32.936 242.647 33.672 244.247 35.144C245.911 36.552 246.743 38.408 246.743 40.712C246.743 43.016 245.911 44.904 244.247 46.376C242.647 47.784 240.631 48.488 238.199 48.488ZM231.575 59.816C231.575 57.064 232.663 55.112 234.839 53.96C237.015 52.744 240.311 52.136 244.727 52.136V94.184C244.727 96.936 243.639 98.92 241.463 100.136C239.287 101.288 235.991 101.864 231.575 101.864V59.816Z" fill="black"/>
<path d="M111.141 218.37C106.917 218.37 103.077 217.602 99.621 216.066C96.165 214.53 93.445 212.418 91.461 209.73C89.477 206.978 88.485 203.874 88.485 200.418V187.65C88.485 184.13 89.445 180.93 91.365 178.05C93.285 175.106 95.973 172.802 99.429 171.138C102.885 169.474 106.789 168.642 111.141 168.642C115.493 168.642 119.397 169.474 122.853 171.138C126.309 172.802 128.997 175.106 130.917 178.05C132.837 180.93 133.797 184.13 133.797 187.65V200.418C133.797 203.874 132.805 206.978 130.821 209.73C128.837 212.418 126.117 214.53 122.661 216.066C119.205 217.602 115.365 218.37 111.141 218.37ZM111.141 207.042C114.149 207.042 116.485 206.37 118.149 205.026C119.813 203.682 120.645 201.826 120.645 199.458V188.322C120.645 185.826 119.781 183.81 118.053 182.274C116.389 180.738 114.085 179.97 111.141 179.97C108.197 179.97 105.861 180.738 104.133 182.274C102.469 183.81 101.637 185.826 101.637 188.322V199.458C101.637 201.826 102.469 203.682 104.133 205.026C105.797 206.37 108.133 207.042 111.141 207.042Z" fill="#AC2C2A"/>
<path d="M160.063 237.57C156.159 237.57 152.703 237.026 149.695 235.938C146.687 234.914 144.351 233.506 142.687 231.714C141.087 229.922 140.287 227.938 140.287 225.762C140.287 223.458 141.087 221.826 142.687 220.866C144.351 219.906 146.687 219.426 149.695 219.426C150.335 224.61 153.791 227.202 160.063 227.202C163.647 227.202 166.143 226.306 167.551 224.514C169.023 222.786 169.759 220.354 169.759 217.218V214.722C170.847 213.954 171.551 213.314 171.871 212.802L171.487 212.322C169.823 213.922 167.583 215.17 164.767 216.066C162.015 216.962 159.519 217.41 157.279 217.41C153.759 217.41 150.559 216.674 147.679 215.202C144.863 213.73 142.623 211.682 140.959 209.058C139.359 206.37 138.559 203.362 138.559 200.034V186.114C138.559 182.914 139.391 180.002 141.055 177.378C142.783 174.69 145.055 172.578 147.871 171.042C150.687 169.442 153.631 168.642 156.703 168.642C160.223 168.642 163.199 169.346 165.631 170.754C168.127 172.098 170.367 174.114 172.351 176.802L172.831 176.418C172.511 175.842 171.903 175.01 171.007 173.922C171.007 170.402 175.039 168.642 183.103 168.642V215.202C183.103 219.49 182.111 223.33 180.127 226.722C178.143 230.178 175.391 232.834 171.871 234.69C168.351 236.61 164.415 237.57 160.063 237.57ZM160.831 206.178C163.519 206.178 165.727 205.538 167.455 204.258C169.183 202.914 170.047 201.314 170.047 199.458V186.594C170.047 184.674 169.183 183.074 167.455 181.794C165.727 180.514 163.519 179.874 160.831 179.874C157.887 179.874 155.615 180.514 154.015 181.794C152.479 183.01 151.711 184.77 151.711 187.074V199.074C151.711 201.314 152.479 203.074 154.015 204.354C155.551 205.57 157.823 206.178 160.831 206.178Z" fill="black"/>
<path d="M127.058 161.667C127.108 161.649 127.127 161.611 127.115 161.553L127.105 161.502C127.103 161.491 127.097 161.487 127.087 161.488C126.586 161.565 126.187 161.667 125.891 161.795C125.098 162.132 124.309 162.536 123.522 163.008C122.935 163.36 122.315 163.878 121.66 164.561C120.261 166.024 118.908 167.849 118.135 169.834C117.866 170.523 117.576 171.206 117.266 171.882C116.959 172.548 116.794 173.305 116.539 174.013C116.509 174.093 116.462 174.147 116.396 174.174C116.38 174.181 116.362 174.183 116.344 174.181C116.327 174.179 116.31 174.172 116.295 174.161C116.28 174.15 116.268 174.136 116.259 174.119C116.25 174.101 116.244 174.082 116.243 174.062C116.205 173.461 116.134 172.785 116.03 172.032C115.982 171.682 115.992 171.12 116.061 170.346C116.111 169.794 116.189 169.254 116.296 168.726C116.537 167.545 116.705 166.347 117.041 165.239C117.705 163.054 118.679 161.269 119.963 159.885C120.784 159 121.858 158.255 123.186 157.652C123.772 157.387 124.622 157.237 125.737 157.203C127.645 157.148 129.671 157.04 131.817 156.879C133.207 156.773 134.475 156.371 135.753 155.742C135.783 155.727 135.817 155.722 135.85 155.728C135.883 155.734 135.914 155.75 135.939 155.775C135.964 155.8 135.983 155.833 135.992 155.869C136.002 155.906 136.003 155.945 135.994 155.982C135.757 156.972 135.489 157.983 135.191 159.014C135.045 159.519 134.841 160.051 134.578 160.611C134.33 161.143 134.092 161.646 133.866 162.121C133.494 162.906 132.863 163.869 131.974 165.01C130.698 166.646 129.256 167.867 127.647 168.675C127.1 168.95 126.502 169.216 125.855 169.475C125.172 169.747 124.558 169.942 124.013 170.059C122.742 170.331 120.968 170.601 119.713 170.171C119.696 170.165 119.681 170.156 119.667 170.144C119.654 170.131 119.643 170.116 119.635 170.099C119.627 170.082 119.622 170.063 119.62 170.044C119.618 170.024 119.62 170.005 119.625 169.986C119.797 169.353 120.011 168.726 120.346 168.18C120.653 167.687 120.878 167.133 121.2 166.652C122.738 164.356 124.702 162.499 127.058 161.667Z" fill="#5FCC10"/>
<path d="M19.8277 212.751C16.841 212.751 14.2743 211.677 12.1277 209.531C10.0743 207.384 9.04766 204.817 9.04766 201.831V128.331C9.04766 123.291 10.7277 119.557 14.0877 117.131C17.4477 114.704 22.6277 113.491 29.6277 113.491V194.971H65.7477C70.4143 194.971 73.961 196.511 76.3877 199.591C78.9077 202.577 80.1677 206.964 80.1677 212.751H19.8277Z" fill="black"/>
<path d="M7.96367 24.7484C7.96367 19.8018 9.64367 15.8818 13.0037 12.9884C16.3637 10.0951 20.8903 8.64844 26.5837 8.64844L71.5237 79.7684L73.0637 78.5084L66.7637 68.0084V8.64844C73.3903 8.64844 78.4303 9.90844 81.8837 12.4284C85.337 14.9484 87.0637 18.6351 87.0637 23.4884V95.5884C87.0637 97.9218 86.317 100.162 84.8237 102.308C83.4237 104.362 81.5103 106.042 79.0837 107.348C76.657 108.562 74.0903 109.168 71.3837 109.168L23.5037 33.4284L21.9637 34.6884L28.2637 45.1884V94.3284C28.2637 99.1818 26.537 102.868 23.0837 105.388C19.6303 107.908 14.5903 109.168 7.96367 109.168V24.7484Z" fill="black"/>
<path d="M224.778 188.627C211.294 147.521 179.473 120.531 141.36 118.966C118.81 118.034 97.0944 127.186 79.6027 143.792C79.5531 143.841 79.5135 143.902 79.4866 143.97C79.4597 144.039 79.4462 144.113 79.4471 144.189C79.4481 144.264 79.4633 144.338 79.4918 144.406C79.5204 144.473 79.5615 144.533 79.6122 144.58C83.2281 147.88 86.839 151.319 90.4449 154.899C92.0348 156.485 92.4386 159.687 90.3263 161.133C88.7264 162.236 87.2145 162.092 85.7904 160.703C77.0191 152.183 68.1084 143.67 59.0582 135.163C55.1109 131.456 59.5594 125.313 63.5311 129.112C67.4716 132.887 71.3095 136.563 75.0447 140.14C75.3662 140.445 75.688 140.446 76.0101 140.142C80.0637 136.299 83.3093 133.488 85.747 131.712C110.045 114.001 137.709 108.815 165.319 117.873C195.654 127.828 218.466 153.692 229.465 187.66C229.542 187.9 229.691 188.101 229.887 188.226C230.082 188.35 230.31 188.391 230.53 188.34C235.575 187.138 240.532 186.153 245.402 185.385C247.591 185.035 249.688 186.65 249.532 189.456C249.42 191.515 248.483 192.721 246.72 193.073C234.412 195.525 222.838 197.769 212 199.807C207.103 200.729 206.282 193.121 210.557 192.144C215.105 191.099 219.696 190.213 224.33 189.485C224.788 189.415 224.937 189.129 224.778 188.627Z" fill="#2AAAAC"/>
<path d="M81.1977 161.536L59.1848 140.498C57.8588 139.23 55.8932 139.443 54.7945 140.972L54.4205 141.493C53.3218 143.023 53.5061 145.29 54.8322 146.558L76.8451 167.596C78.1711 168.863 80.1368 168.65 81.2354 167.121L81.6095 166.6C82.7081 165.07 82.5238 162.803 81.1977 161.536Z" fill="#2AAAAC"/>
<path d="M243.896 197.741L215.724 203.213C214.016 203.545 212.865 205.411 213.152 207.381L213.244 208.007C213.531 209.977 215.149 211.305 216.857 210.973L245.029 205.502C246.737 205.17 247.888 203.304 247.6 201.334L247.509 200.708C247.221 198.738 245.604 197.409 243.896 197.741Z" fill="#2AAAAC"/>
<path d="M68.8042 165.219L58.5199 155.285C57.1169 153.929 55.0271 154.143 53.8522 155.761L53.6925 155.981C52.5176 157.6 52.7026 160.01 54.1056 161.366L64.3899 171.3C65.7929 172.655 67.8827 172.441 69.0576 170.823L69.2173 170.603C70.3922 168.985 70.2072 166.574 68.8042 165.219Z" fill="#2AAAAC"/>
<path d="M238.244 210.925L224.771 213.542C223.03 213.88 221.855 215.783 222.149 217.792L222.231 218.358C222.525 220.367 224.174 221.721 225.916 221.383L239.389 218.766C241.131 218.428 242.305 216.525 242.012 214.516L241.929 213.95C241.636 211.941 239.986 210.587 238.244 210.925Z" fill="#2AAAAC"/>
</svg>
